<mxfile host="app.diagrams.net" modified="2023-09-10T16:16:29.943Z" agent="Mozilla/5.0 (Windows NT 10.0; Win64; x64; rv:109.0) Gecko/20100101 Firefox/117.0" etag="DuCKhQ-GVqfM34tdIMkd" version="21.6.8" type="github">
  <diagram name="Page-1" id="2YBvvXClWsGukQMizWep">
    <mxGraphModel dx="880" dy="442" grid="1" gridSize="10" guides="1" tooltips="1" connect="1" arrows="1" fold="1" page="1" pageScale="1" pageWidth="850" pageHeight="1100" math="0" shadow="0">
      <root>
        <mxCell id="0" />
        <mxCell id="1" parent="0" />
        <mxCell id="3GdElPyPjPGlwqWzTqBS-2" style="edgeStyle=orthogonalEdgeStyle;rounded=0;orthogonalLoop=1;jettySize=auto;html=1;" edge="1" parent="1" source="3GdElPyPjPGlwqWzTqBS-1">
          <mxGeometry relative="1" as="geometry">
            <mxPoint x="150" y="160" as="targetPoint" />
          </mxGeometry>
        </mxCell>
        <mxCell id="3GdElPyPjPGlwqWzTqBS-3" style="edgeStyle=orthogonalEdgeStyle;rounded=0;orthogonalLoop=1;jettySize=auto;html=1;" edge="1" parent="1" source="3GdElPyPjPGlwqWzTqBS-1">
          <mxGeometry relative="1" as="geometry">
            <mxPoint x="550" y="160" as="targetPoint" />
          </mxGeometry>
        </mxCell>
        <mxCell id="3GdElPyPjPGlwqWzTqBS-1" value="Round 1" style="rounded=1;whiteSpace=wrap;html=1;" vertex="1" parent="1">
          <mxGeometry x="110" y="50" width="490" height="50" as="geometry" />
        </mxCell>
        <mxCell id="3GdElPyPjPGlwqWzTqBS-4" value="" style="rounded=1;whiteSpace=wrap;html=1;" vertex="1" parent="1">
          <mxGeometry x="7" y="164" width="310" height="133" as="geometry" />
        </mxCell>
        <mxCell id="3GdElPyPjPGlwqWzTqBS-5" value="Group 1" style="text;html=1;strokeColor=none;fillColor=none;align=center;verticalAlign=middle;whiteSpace=wrap;rounded=0;" vertex="1" parent="1">
          <mxGeometry x="121" y="164" width="60" height="30" as="geometry" />
        </mxCell>
        <mxCell id="3GdElPyPjPGlwqWzTqBS-6" value="Nalanda College" style="rounded=1;whiteSpace=wrap;html=1;" vertex="1" parent="1">
          <mxGeometry x="17" y="194" width="130" height="83" as="geometry" />
        </mxCell>
        <mxCell id="3GdElPyPjPGlwqWzTqBS-7" value="Good Shepherd Convent" style="rounded=1;whiteSpace=wrap;html=1;" vertex="1" parent="1">
          <mxGeometry x="157" y="194" width="139" height="83" as="geometry" />
        </mxCell>
        <mxCell id="3GdElPyPjPGlwqWzTqBS-9" value="" style="rounded=1;whiteSpace=wrap;html=1;" vertex="1" parent="1">
          <mxGeometry x="408" y="164" width="311" height="133" as="geometry" />
        </mxCell>
        <mxCell id="3GdElPyPjPGlwqWzTqBS-10" value="Group 2" style="text;html=1;strokeColor=none;fillColor=none;align=center;verticalAlign=middle;whiteSpace=wrap;rounded=0;" vertex="1" parent="1">
          <mxGeometry x="522" y="164" width="61" height="30" as="geometry" />
        </mxCell>
        <mxCell id="3GdElPyPjPGlwqWzTqBS-11" value="Nalanda College" style="rounded=1;whiteSpace=wrap;html=1;" vertex="1" parent="1">
          <mxGeometry x="418" y="194" width="131" height="83" as="geometry" />
        </mxCell>
        <mxCell id="3GdElPyPjPGlwqWzTqBS-12" value="Good Shepherd Convent" style="rounded=1;whiteSpace=wrap;html=1;" vertex="1" parent="1">
          <mxGeometry x="558" y="194" width="140" height="83" as="geometry" />
        </mxCell>
      </root>
    </mxGraphModel>
  </diagram>
</mxfile>
